# xmcd CD database file
#
# Track frame offsets:
#	183
#	11645
#	25330
#	37408
#	49753
#	61908
#	74630
#	83795
#	94378
#	104998
#	116723
#	127568
#	137065
#	148813
#	160395
#	180065
#	190615
#
# Disc length: 2672 seconds
#
# Revision: 2
# Processed by: cddbd v1.5.2PL0 Copyright (c) Steve Scherf et al.
# Submitted via: CDex 1.78
#
DISCID=f50a6e11
DTITLE=Various Artist - Good Old Country and Western 
DYEAR=0
DGENRE=Country
TTITLE0=Don Gibson - Oh, Lonesome Me
TTITLE1=The Jordanaires - Peace In The Valley
TTITLE2=Jim Reeves - Mexican Joe
TTITLE3=Jerry Lee Lewis - Crazy Arms
TTITLE4=Johnny Cash - Next In Line
TTITLE5=Lee Hazelwood - These Boots Are Made For Walking
TTITLE6=George Jones - The World's Worst Loser
TTITLE7=Waylon Jennings - Sally Was A Good Old Girl
TTITLE8=Slim Whitman - Rose Marie
TTITLE9=Hank Williams - Settin' The Woods On Fire
TTITLE10=Dolly Parton - (It Wasn't God Who Made) Honky Tonk Angels
TTITLE11=George Jones - The Race Is On
TTITLE12=Jim Reeves - Yonder Comes A Sucker
TTITLE13=Conway Twitty - Broken Heart
TTITLE14=Marty Robbins - El Paso
TTITLE15=Johnny Cash - Train Of Love
TTITLE16=Dolly Parton - Please Release Me
EXTD=
EXTT0=
EXTT1=
EXTT2=
EXTT3=
EXTT4=
EXTT5=
EXTT6=
EXTT7=
EXTT8=
EXTT9=
EXTT10=
EXTT11=
EXTT12=
EXTT13=
EXTT14=
EXTT15=
EXTT16=
PLAYORDER=
